<?xml version="1.0" encoding="UTF-8" standalone="no"?>
<!-- Created with Inkscape (http://www.inkscape.org/) -->

<svg
   id="svg5"
   version="1.1"
   viewBox="0 0 1237.1931 397.04262"
   height="397.04263mm"
   width="1237.193mm"
   inkscape:version="1.1.1 (3bf5ae0d25, 2021-09-20)"
   sodipodi:docname="logo_monan_hor_path.svg"
   inkscape:export-filename="/home/joao/Downloads/monan_logo/logo_monan_hor_1200x385.png"
   inkscape:export-xdpi="24.629597"
   inkscape:export-ydpi="24.629597"
   xmlns:inkscape="http://www.inkscape.org/namespaces/inkscape"
   xmlns:sodipodi="http://sodipodi.sourceforge.net/DTD/sodipodi-0.dtd"
   xmlns:xlink="http://www.w3.org/1999/xlink"
   xmlns="http://www.w3.org/2000/svg"
   xmlns:svg="http://www.w3.org/2000/svg">
  <sodipodi:namedview
     id="namedview7"
     pagecolor="#ffffff"
     bordercolor="#666666"
     borderopacity="1.0"
     inkscape:pageshadow="2"
     inkscape:pageopacity="0.0"
     inkscape:pagecheckerboard="true"
     inkscape:document-units="mm"
     showgrid="true"
     width="1000mm"
     borderlayer="false"
     showborder="true"
     inkscape:showpageshadow="false"
     inkscape:zoom="0.11313709"
     inkscape:cx="1710.3145"
     inkscape:cy="212.13202"
     inkscape:window-width="1920"
     inkscape:window-height="1011"
     inkscape:window-x="0"
     inkscape:window-y="0"
     inkscape:window-maximized="1"
     inkscape:current-layer="layer3"
     inkscape:snap-grids="true"
     inkscape:snap-to-guides="true"
     inkscape:snap-page="false"
     fit-margin-top="5"
     fit-margin-left="5"
     fit-margin-right="5"
     fit-margin-bottom="5"
     inkscape:lockguides="false"
     showguides="true"
     inkscape:guide-bbox="true">
    <inkscape:grid
       type="axonomgrid"
       id="grid1605"
       gridanglex="45"
       gridanglez="45"
       spacingy="3"
       originx="-128.1386"
       originy="-303.51732" />
  </sodipodi:namedview>
  <defs
     id="defs2">
    <rect
       x="18.897657"
       y="3137.0063"
       width="3656.6931"
       height="1445.6693"
       id="rect6957" />
    <linearGradient
       inkscape:collect="always"
       id="linearGradient137793-9">
      <stop
         style="stop-color:#819793;stop-opacity:1;"
         offset="0"
         id="stop138036" />
      <stop
         style="stop-color:#819793;stop-opacity:0;"
         offset="1"
         id="stop138038" />
    </linearGradient>
    <radialGradient
       inkscape:collect="always"
       xlink:href="#linearGradient137793-9"
       id="radialGradient137795"
       cx="510"
       cy="525"
       fx="510"
       fy="525"
       r="315.18707"
       gradientUnits="userSpaceOnUse" />
  </defs>
  <g
     inkscape:label="Layer 1"
     inkscape:groupmode="layer"
     id="layer1"
     style="display:none"
     transform="translate(-128.13856,-303.51734)" />
  <g
     inkscape:groupmode="layer"
     id="layer2"
     inkscape:label="Layer 2"
     style="display:none"
     transform="translate(-128.13856,-303.51734)" />
  <g
     inkscape:groupmode="layer"
     id="layer3"
     inkscape:label="Layer 3"
     transform="translate(-128.13856,-303.51734)"
     style="display:inline">
    <g
       id="g6441">
      <g
         id="g863"
         transform="matrix(0.48486244,0,0,0.48486244,79.574356,247.59501)"
         style="stroke:none;stroke-width:1;stroke-miterlimit:4;stroke-dasharray:none">
        <g
           id="g124038"
           transform="matrix(4.6665555,0,0,4.668143,-1226.2223,-672.60377)"
           style="display:inline;stroke:none;stroke-width:0.214254;stroke-miterlimit:4;stroke-dasharray:none">
          <path
             style="fill:#adc7dd;fill-opacity:1;stroke:none;stroke-width:0.214254;stroke-linecap:butt;stroke-linejoin:miter;stroke-miterlimit:4;stroke-dasharray:none;stroke-opacity:1"
             d="m 322.5,175.5 4.5,-4.5 45,45 45,-45 4.5,4.5 L 372,225 Z"
             id="path71099"
             sodipodi:nodetypes="ccccccc" />
          <path
             style="display:inline;fill:#d9ab7b;fill-opacity:1;stroke:none;stroke-width:0.214254;stroke-linecap:butt;stroke-linejoin:miter;stroke-miterlimit:4;stroke-dasharray:none;stroke-opacity:1"
             d="M 421.5,337.5 417,342 372,297 327,342 322.5,337.5 372,288 Z"
             id="path71099-5"
             sodipodi:nodetypes="ccccccc" />
          <path
             style="fill:#afc8dc;fill-opacity:1;stroke:none;stroke-width:0.214254;stroke-linecap:butt;stroke-linejoin:miter;stroke-miterlimit:4;stroke-dasharray:none;stroke-opacity:1"
             d="m 318.00001,180 -4.50001,4.5 58.50001,58.5 58.49998,-58.5 -4.50001,-4.5 -53.99997,54 z"
             id="path72939" />
          <path
             style="display:inline;fill:#b33f1d;fill-opacity:1;stroke:none;stroke-width:0.214254;stroke-linecap:butt;stroke-linejoin:miter;stroke-miterlimit:4;stroke-dasharray:none;stroke-opacity:1"
             d="m 426,333 4.50001,-4.5 L 372,270 313.50002,328.5 318.00003,333 372,279 Z"
             id="path72939-7" />
          <path
             style="display:inline;fill:#5f83b3;fill-opacity:1;stroke:none;stroke-width:0.214254;stroke-linecap:butt;stroke-linejoin:miter;stroke-miterlimit:4;stroke-dasharray:none;stroke-opacity:1"
             d="M 448.50438,202.49563 444,198 l -58.44297,58.55699 58.55698,58.44295 4.49561,-4.50439 -54.05259,-53.94733 z"
             id="path72939-3" />
          <path
             style="display:inline;fill:#658c31;fill-opacity:1;stroke:none;stroke-width:0.214254;stroke-linecap:butt;stroke-linejoin:miter;stroke-miterlimit:4;stroke-dasharray:none;stroke-opacity:1"
             d="m 295.39138,310.49558 4.49565,4.50436 58.55646,-58.4435 L 300,198 l -4.50434,4.49566 53.94783,54.05209 z"
             id="path72939-3-6" />
          <path
             style="fill:#18aeed;fill-opacity:1;stroke:none;stroke-width:0.214254;stroke-linecap:butt;stroke-linejoin:miter;stroke-miterlimit:4;stroke-dasharray:none;stroke-opacity:1"
             d="m 308.99999,189 -4.5,4.5 L 372,261 439.5,193.5 435,189 372,252 Z"
             id="path72941"
             sodipodi:nodetypes="ccccccc" />
          <path
             style="display:inline;fill:#a4cff1;fill-opacity:1;stroke:none;stroke-width:0.214254;stroke-linecap:butt;stroke-linejoin:miter;stroke-miterlimit:4;stroke-dasharray:none;stroke-opacity:1"
             d="m 435,324 4.5,-4.5 -67.50001,-67.5 -67.5,67.5 4.5,4.5 63,-63 z"
             id="path72941-3"
             sodipodi:nodetypes="ccccccc" />
          <path
             style="fill:#446f76;fill-opacity:1;stroke:none;stroke-width:0.214254;stroke-linecap:butt;stroke-linejoin:miter;stroke-miterlimit:4;stroke-dasharray:none;stroke-opacity:1"
             d="m 453,207 -49.5,49.5 49.5,49.5 4.5,-4.5 -45,-45 45.00001,-45 L 453,207"
             id="path114850"
             sodipodi:nodetypes="ccccccc" />
          <path
             style="display:inline;fill:#637134;fill-opacity:1;stroke:none;stroke-width:0.214254;stroke-linecap:butt;stroke-linejoin:miter;stroke-miterlimit:4;stroke-dasharray:none;stroke-opacity:1"
             d="M 290.93568,305.9473 340.5,256.5117 291.0644,206.94738 286.55855,211.44153 331.5,256.5 l -45.05847,44.94145 4.49415,4.50585"
             id="path114850-2"
             sodipodi:nodetypes="ccccccc" />
        </g>
        <path
           style="fill:url(#radialGradient137795);fill-opacity:1;stroke:none;stroke-width:1;stroke-linecap:butt;stroke-linejoin:miter;stroke-miterlimit:4;stroke-dasharray:none;stroke-opacity:1"
           d="M 216,210 510.00001,504 804,210 l 20.99998,21 -294,294 294,294 L 804,839.99998 510.00001,545.99998 216,839.99998 195,819 489,525 195,231 216,210"
           id="path124172" />
      </g>
      <g
         aria-label="MONAN"
         transform="matrix(0.26458333,0,0,0.26458333,539.39927,-457.17795)"
         id="text6955"
         style="font-size:720px;line-height:1.25;letter-spacing:38px;white-space:pre;shape-inside:url(#rect6957);fill:#000000;fill-opacity:1" />
      <g
         id="g6379">
        <path
           d="m 638.09844,3798.7532 -0.72,-504 h -77.04 l -196.56,334.08 -200.16,-334.08 H 86.578438 v 504 h 89.280002 v -329.76 l 165.6,272.16 h 41.76 l 165.6,-276.48 0.72,334.08 z"
           style="display:inline;font-size:720px;line-height:1.25;letter-spacing:38px;white-space:pre;shape-inside:url(#rect6957);fill:#000000;fill-opacity:1;font-weight:600;font-family:Montserrat;-inkscape-font-specification:'Montserrat Semi-Bold'"
           id="path6175"
           transform="matrix(0.26458333,0,0,0.26458333,539.39927,-457.17795)" />
        <path
           d="m 1047.6184,3805.9532 c 156.24,0 271.44,-109.44 271.44,-259.2 0,-149.76 -115.2,-259.2 -271.44,-259.2 -156.23999,0 -271.43999,110.16 -271.43999,259.2 0,149.04 115.2,259.2 271.43999,259.2 z m 0,-82.08 c -101.51999,0 -177.11999,-74.16 -177.11999,-177.12 0,-102.96 75.6,-177.12 177.11999,-177.12 101.52,0 177.12,74.16 177.12,177.12 0,102.96 -75.6,177.12 -177.12,177.12 z"
           style="display:inline;font-size:720px;line-height:1.25;letter-spacing:38px;white-space:pre;shape-inside:url(#rect6957);fill:#000000;fill-opacity:1;font-weight:600;font-family:Montserrat;-inkscape-font-specification:'Montserrat Semi-Bold'"
           id="path6177"
           transform="matrix(0.26458333,0,0,0.26458333,539.39927,-457.17795)" />
        <path
           d="m 1811.3778,3294.7532 v 341.28 l -277.92,-341.28 h -77.04 v 504 h 92.88 v -341.28 l 277.92,341.28 h 77.04 v -504 z"
           style="display:inline;font-size:720px;line-height:1.25;letter-spacing:38px;white-space:pre;shape-inside:url(#rect6957);fill:#000000;fill-opacity:1;font-weight:600;font-family:Montserrat;-inkscape-font-specification:'Montserrat Semi-Bold'"
           id="path6179"
           transform="matrix(0.26458333,0,0,0.26458333,539.39927,-457.17795)" />
        <path
           d="m 2454.8973,3798.7532 h 97.92 l -227.52,-504 h -92.16 l -226.8,504 h 96.48 l 49.68,-116.64 h 252 z m -270.72,-190.08 94.32,-220.32 95.04,220.32 z"
           style="display:inline;font-size:720px;line-height:1.25;letter-spacing:38px;white-space:pre;shape-inside:url(#rect6957);fill:#000000;fill-opacity:1;font-weight:600;font-family:Montserrat;-inkscape-font-specification:'Montserrat Semi-Bold'"
           id="path6181"
           transform="matrix(0.26458333,0,0,0.26458333,539.39927,-457.17795)" />
        <path
           d="m 3009.8563,3294.7532 v 341.28 l -277.92,-341.28 h -77.04 v 504 h 92.88 v -341.28 l 277.92,341.28 h 77.04 v -504 z"
           style="display:inline;font-size:720px;line-height:1.25;letter-spacing:38px;white-space:pre;shape-inside:url(#rect6957);fill:#000000;fill-opacity:1;font-weight:600;font-family:Montserrat;-inkscape-font-specification:'Montserrat Semi-Bold'"
           id="path6183"
           transform="matrix(0.26458333,0,0,0.26458333,539.39927,-457.17795)" />
        <g
           aria-label="Model for Ocean-laNd-Atmosphere predictioN"
           id="text36160"
           style="font-size:33.7256px;line-height:1.25;word-spacing:0.79375px;fill:#000000;fill-opacity:1;stroke-width:0.264583"
           transform="translate(464.84006,-529.58353)">
          <path
             d="m 123.126,1119.7863 -0.0337,-23.608 h -3.60864 l -9.20709,15.6487 -9.37572,-15.6487 h -3.608637 v 23.608 h 4.181977 v -15.4464 l 7.75689,12.7483 h 1.95608 l 7.75689,-12.9506 0.0337,15.6487 z"
             style="font-weight:600;font-family:Montserrat;-inkscape-font-specification:'Montserrat, Semi-Bold'"
             id="path6186" />
          <path
             d="m 137.18958,1120.0223 c 5.59845,0 9.61179,-3.8447 9.61179,-9.2408 0,-5.3961 -4.01334,-9.2071 -9.61179,-9.2071 -5.531,0 -9.57807,3.811 -9.57807,9.2071 0,5.3961 4.04707,9.2408 9.57807,9.2408 z m 0,-3.6086 c -3.03531,0 -5.32865,-2.1922 -5.32865,-5.6322 0,-3.44 2.29334,-5.6322 5.32865,-5.6322 3.06903,0 5.36237,2.1922 5.36237,5.6322 0,3.44 -2.29334,5.6322 -5.36237,5.6322 z"
             style="font-weight:600;font-family:Montserrat;-inkscape-font-specification:'Montserrat, Semi-Bold'"
             id="path6188" />
          <path
             d="m 164.27119,1094.7619 v 9.2408 c -1.41648,-1.6526 -3.47374,-2.4283 -5.80081,-2.4283 -5.22747,0 -9.10591,3.6087 -9.10591,9.2071 0,5.5985 3.87844,9.2408 9.10591,9.2408 2.46197,0 4.55296,-0.8431 5.96943,-2.5631 v 2.3271 h 4.04708 v -25.0244 z m -5.29492,21.6518 c -3.03531,0 -5.36237,-2.1922 -5.36237,-5.6322 0,-3.44 2.32706,-5.6322 5.36237,-5.6322 3.0353,0 5.36237,2.1922 5.36237,5.6322 0,3.44 -2.32707,5.6322 -5.36237,5.6322 z"
             style="font-weight:600;font-family:Montserrat;-inkscape-font-specification:'Montserrat, Semi-Bold'"
             id="path6190" />
          <path
             d="m 190.94808,1110.8827 c 0,-5.6322 -3.84472,-9.3083 -9.10591,-9.3083 -5.36237,0 -9.30827,3.8447 -9.30827,9.2071 0,5.3624 3.91217,9.2408 9.94905,9.2408 3.10276,0 5.63218,-1.0117 7.25101,-2.9341 l -2.25962,-2.5969 c -1.28157,1.3153 -2.86667,1.9561 -4.89021,1.9561 -3.13648,0 -5.32865,-1.6863 -5.83453,-4.3169 h 14.13103 c 0.0337,-0.4047 0.0675,-0.9105 0.0675,-1.2478 z m -9.10591,-5.9357 c 2.7655,0 4.75531,1.7874 5.09256,4.3843 h -10.21886 c 0.40471,-2.6306 2.39452,-4.3843 5.1263,-4.3843 z"
             style="font-weight:600;font-family:Montserrat;-inkscape-font-specification:'Montserrat, Semi-Bold'"
             id="path6192" />
          <path
             d="m 194.99514,1119.7863 h 4.2157 v -25.0244 h -4.2157 z"
             style="font-weight:600;font-family:Montserrat;-inkscape-font-specification:'Montserrat, Semi-Bold'"
             id="path6194" />
          <path
             d="m 222.16227,1097.9321 c 0.87687,0 1.68628,0.3035 2.32707,0.7419 l 1.18039,-3.1702 c -0.94431,-0.6745 -2.36079,-0.978 -3.81099,-0.978 -4.18197,0 -6.44159,2.4619 -6.44159,6.2392 v 1.1467 h -2.96785 v 3.3725 h 2.96785 v 14.5021 h 4.2157 v -14.5021 h 4.82276 v -3.3725 h -4.95766 v -1.0792 c 0,-1.9224 0.91059,-2.9004 2.66432,-2.9004 z"
             style="font-weight:600;font-family:Montserrat;-inkscape-font-specification:'Montserrat, Semi-Bold'"
             id="path6196" />
          <path
             d="m 235.11284,1120.0223 c 5.59845,0 9.6118,-3.8447 9.6118,-9.2408 0,-5.3961 -4.01335,-9.2071 -9.6118,-9.2071 -5.531,0 -9.57807,3.811 -9.57807,9.2071 0,5.3961 4.04707,9.2408 9.57807,9.2408 z m 0,-3.6086 c -3.0353,0 -5.32864,-2.1922 -5.32864,-5.6322 0,-3.44 2.29334,-5.6322 5.32864,-5.6322 3.06903,0 5.36237,2.1922 5.36237,5.6322 0,3.44 -2.29334,5.6322 -5.36237,5.6322 z"
             style="font-weight:600;font-family:Montserrat;-inkscape-font-specification:'Montserrat, Semi-Bold'"
             id="path6198" />
          <path
             d="m 252.785,1104.4074 v -2.6306 h -4.01334 v 18.0095 h 4.2157 v -8.735 c 0,-3.6761 2.02353,-5.5647 5.22746,-5.5647 0.30353,0 0.60707,0.034 0.97805,0.1012 v -4.0134 c -3.00158,0 -5.19375,0.9443 -6.40787,2.833 z"
             style="font-weight:600;font-family:Montserrat;-inkscape-font-specification:'Montserrat, Semi-Bold'"
             id="path6200" />
          <path
             d="m 284.47131,1120.1235 c 7.31846,0 12.71455,-5.1263 12.71455,-12.1412 0,-7.0149 -5.39609,-12.1412 -12.71455,-12.1412 -7.31845,0 -12.71455,5.16 -12.71455,12.1412 0,6.9812 5.3961,12.1412 12.71455,12.1412 z m 0,-3.8447 c -4.75531,0 -8.2965,-3.4737 -8.2965,-8.2965 0,-4.8228 3.54119,-8.2965 8.2965,-8.2965 4.75531,0 8.2965,3.4737 8.2965,8.2965 0,4.8228 -3.54119,8.2965 -8.2965,8.2965 z"
             style="font-weight:600;font-family:Montserrat;-inkscape-font-specification:'Montserrat, Semi-Bold'"
             id="path6202" />
          <path
             d="m 309.69803,1120.0223 c 3.50747,0 6.30669,-1.5176 7.68944,-4.2157 l -3.23766,-1.8886 c -1.07922,1.72 -2.69805,2.4957 -4.4855,2.4957 -3.10276,0 -5.46355,-2.1247 -5.46355,-5.6322 0,-3.4737 2.36079,-5.6322 5.46355,-5.6322 1.78745,0 3.40628,0.7757 4.4855,2.4957 l 3.23766,-1.8886 c -1.38275,-2.7318 -4.18197,-4.182 -7.68944,-4.182 -5.69962,0 -9.7467,3.811 -9.7467,9.2071 0,5.3961 4.04708,9.2408 9.7467,9.2408 z"
             style="font-weight:600;font-family:Montserrat;-inkscape-font-specification:'Montserrat, Semi-Bold'"
             id="path6204" />
          <path
             d="m 337.69022,1110.8827 c 0,-5.6322 -3.84472,-9.3083 -9.10591,-9.3083 -5.36237,0 -9.30827,3.8447 -9.30827,9.2071 0,5.3624 3.91217,9.2408 9.94905,9.2408 3.10276,0 5.63218,-1.0117 7.25101,-2.9341 l -2.25962,-2.5969 c -1.28157,1.3153 -2.86667,1.9561 -4.89021,1.9561 -3.13648,0 -5.32864,-1.6863 -5.83453,-4.3169 h 14.13103 c 0.0337,-0.4047 0.0675,-0.9105 0.0675,-1.2478 z m -9.10591,-5.9357 c 2.7655,0 4.75531,1.7874 5.09256,4.3843 h -10.21885 c 0.4047,-2.6306 2.39451,-4.3843 5.12629,-4.3843 z"
             style="font-weight:600;font-family:Montserrat;-inkscape-font-specification:'Montserrat, Semi-Bold'"
             id="path6206" />
          <path
             d="m 348.11137,1101.5744 c -2.90041,0 -5.69963,0.742 -7.62199,2.2259 l 1.65255,3.069 c 1.34903,-1.1129 3.44002,-1.7874 5.46355,-1.7874 3.00158,0 4.48551,1.4502 4.48551,3.9122 v 0.2698 h -4.65414 c -5.46354,0 -7.48708,2.3608 -7.48708,5.3623 0,3.1365 2.59687,5.3961 6.71139,5.3961 2.69805,0 4.65414,-0.8768 5.66591,-2.4282 v 2.1922 h 3.97962 v -10.5562 c 0,-5.1937 -3.00158,-7.6557 -8.19532,-7.6557 z m -0.57334,15.3789 c -2.15844,0 -3.44001,-0.978 -3.44001,-2.4957 0,-1.3153 0.77569,-2.3945 3.64236,-2.3945 h 4.35061 v 2.091 c -0.70824,1.8549 -2.4957,2.7992 -4.55296,2.7992 z"
             style="font-weight:600;font-family:Montserrat;-inkscape-font-specification:'Montserrat, Semi-Bold'"
             id="path6208" />
          <path
             d="m 371.92159,1101.5744 c -2.6306,0 -4.82276,0.8769 -6.20551,2.5295 v -2.3271 h -4.01335 v 18.0095 h 4.2157 v -9.106 c 0,-3.6086 2.02354,-5.4298 5.02512,-5.4298 2.69805,0 4.28315,1.5514 4.28315,4.7553 v 9.7805 h 4.2157 v -10.3201 c 0,-5.4298 -3.20393,-7.8918 -7.52081,-7.8918 z"
             style="font-weight:600;font-family:Montserrat;-inkscape-font-specification:'Montserrat, Semi-Bold'"
             id="path6210" />
          <path
             d="m 383.89416,1112.1643 h 9.27454 v -3.5075 h -9.27454 z"
             style="font-weight:600;font-family:Montserrat;-inkscape-font-specification:'Montserrat, Semi-Bold'"
             id="path6212" />
          <path
             d="m 397.78907,1119.7863 h 4.2157 v -25.0244 h -4.2157 z"
             style="font-weight:600;font-family:Montserrat;-inkscape-font-specification:'Montserrat, Semi-Bold'"
             id="path6214" />
          <path
             d="m 414.41576,1101.5744 c -2.9004,0 -5.69962,0.742 -7.62198,2.2259 l 1.65255,3.069 c 1.34903,-1.1129 3.44001,-1.7874 5.46355,-1.7874 3.00158,0 4.4855,1.4502 4.4855,3.9122 v 0.2698 h -4.65413 c -5.46355,0 -7.48708,2.3608 -7.48708,5.3623 0,3.1365 2.59687,5.3961 6.71139,5.3961 2.69805,0 4.65413,-0.8768 5.6659,-2.4282 v 2.1922 h 3.97962 v -10.5562 c 0,-5.1937 -3.00157,-7.6557 -8.19532,-7.6557 z m -0.57333,15.3789 c -2.15844,0 -3.44001,-0.978 -3.44001,-2.4957 0,-1.3153 0.77569,-2.3945 3.64236,-2.3945 h 4.3506 v 2.091 c -0.70823,1.8549 -2.49569,2.7992 -4.55295,2.7992 z"
             style="font-weight:600;font-family:Montserrat;-inkscape-font-specification:'Montserrat, Semi-Bold'"
             id="path6216" />
          <path
             d="m 445.03854,1096.1783 v 15.986 l -13.01808,-15.986 h -3.60864 v 23.608 h 4.3506 v -15.986 l 13.01809,15.986 h 3.60864 v -23.608 z"
             style="font-weight:600;font-family:Montserrat;-inkscape-font-specification:'Montserrat, Semi-Bold'"
             id="path6218" />
          <path
             d="m 468.74762,1094.7619 v 9.2408 c -1.41647,-1.6526 -3.47373,-2.4283 -5.8008,-2.4283 -5.22747,0 -9.10591,3.6087 -9.10591,9.2071 0,5.5985 3.87844,9.2408 9.10591,9.2408 2.46197,0 4.55296,-0.8431 5.96943,-2.5631 v 2.3271 h 4.04707 v -25.0244 z m -5.29492,21.6518 c -3.0353,0 -5.36237,-2.1922 -5.36237,-5.6322 0,-3.44 2.32707,-5.6322 5.36237,-5.6322 3.03531,0 5.36237,2.1922 5.36237,5.6322 0,3.44 -2.32706,5.6322 -5.36237,5.6322 z"
             style="font-weight:600;font-family:Montserrat;-inkscape-font-specification:'Montserrat, Semi-Bold'"
             id="path6220" />
          <path
             d="m 477.58368,1112.1643 h 9.27454 v -3.5075 h -9.27454 z"
             style="font-weight:600;font-family:Montserrat;-inkscape-font-specification:'Montserrat, Semi-Bold'"
             id="path6222" />
          <path
             d="m 508.88097,1119.7863 h 4.58668 l -10.65729,-23.608 h -4.31687 l -10.62357,23.608 h 4.51923 l 2.32707,-5.4636 h 11.80396 z m -12.68082,-8.9036 4.41805,-10.32 4.45178,10.32 z"
             style="font-weight:600;font-family:Montserrat;-inkscape-font-specification:'Montserrat, Semi-Bold'"
             id="path6224" />
          <path
             d="m 525.54134,1115.8066 c -0.64079,0.5059 -1.48393,0.742 -2.36079,0.742 -1.61883,0 -2.4957,-0.9443 -2.4957,-2.6981 v -8.5663 h 4.82276 v -3.3725 h -4.82276 v -4.1145 h -4.2157 v 4.1145 h -2.96785 v 3.3725 h 2.96785 v 8.6675 c 0,3.9796 2.25962,6.0706 6.20551,6.0706 1.51765,0 3.03531,-0.4047 4.04707,-1.2141 z"
             style="font-weight:600;font-family:Montserrat;-inkscape-font-specification:'Montserrat, Semi-Bold'"
             id="path6226" />
          <path
             d="m 552.92652,1101.5744 c -2.86667,0 -5.29492,1.1467 -6.74512,3.0016 -1.24784,-2.0235 -3.44001,-3.0016 -6.0706,-3.0016 -2.46197,0 -4.55296,0.8769 -5.90198,2.4957 v -2.2933 h -4.01335 v 18.0095 h 4.2157 v -9.1397 c 0,-3.5749 1.88863,-5.3961 4.68786,-5.3961 2.56314,0 4.04707,1.5514 4.04707,4.7553 v 9.7805 h 4.2157 v -9.1397 c 0,-3.5749 1.92236,-5.3961 4.68786,-5.3961 2.56314,0 4.04707,1.5514 4.04707,4.7553 v 9.7805 h 4.2157 v -10.3201 c 0,-5.4298 -3.0353,-7.8918 -7.38591,-7.8918 z"
             style="font-weight:600;font-family:Montserrat;-inkscape-font-specification:'Montserrat, Semi-Bold'"
             id="path6228" />
          <path
             d="m 573.83637,1120.0223 c 5.59845,0 9.61179,-3.8447 9.61179,-9.2408 0,-5.3961 -4.01334,-9.2071 -9.61179,-9.2071 -5.531,0 -9.57807,3.811 -9.57807,9.2071 0,5.3961 4.04707,9.2408 9.57807,9.2408 z m 0,-3.6086 c -3.03531,0 -5.32865,-2.1922 -5.32865,-5.6322 0,-3.44 2.29334,-5.6322 5.32865,-5.6322 3.06903,0 5.36237,2.1922 5.36237,5.6322 0,3.44 -2.29334,5.6322 -5.36237,5.6322 z"
             style="font-weight:600;font-family:Montserrat;-inkscape-font-specification:'Montserrat, Semi-Bold'"
             id="path6230" />
          <path
             d="m 593.05991,1120.0223 c 5.05884,0 8.16159,-2.1921 8.16159,-5.5647 0,-7.0486 -11.12945,-3.811 -11.12945,-7.4533 0,-1.1804 1.21413,-2.0236 3.77727,-2.0236 1.72001,0 3.44001,0.3373 5.16002,1.349 l 1.61883,-3.2039 c -1.61883,-0.978 -4.35061,-1.5514 -6.74512,-1.5514 -4.85649,0 -7.92552,2.2259 -7.92552,5.6322 0,7.1836 11.12945,3.9459 11.12945,7.3859 0,1.2479 -1.11295,1.9898 -3.77727,1.9898 -2.25961,0 -4.68786,-0.7419 -6.27296,-1.7874 l -1.61883,3.2039 c 1.61883,1.1467 4.62041,2.0235 7.62199,2.0235 z"
             style="font-weight:600;font-family:Montserrat;-inkscape-font-specification:'Montserrat, Semi-Bold'"
             id="path6232" />
          <path
             d="m 614.84661,1101.5744 c -2.46197,0 -4.55295,0.8432 -5.96943,2.5632 v -2.3608 h -4.01335 v 24.5522 h 4.2157 v -8.7349 c 1.45021,1.6525 3.47374,2.4282 5.76708,2.4282 5.2612,0 9.13964,-3.6423 9.13964,-9.2408 0,-5.5647 -3.87844,-9.2071 -9.13964,-9.2071 z m -0.47216,14.8393 c -3.0353,0 -5.36237,-2.1922 -5.36237,-5.6322 0,-3.44 2.32707,-5.6322 5.36237,-5.6322 3.03531,0 5.32865,2.1922 5.32865,5.6322 0,3.44 -2.29334,5.6322 -5.32865,5.6322 z"
             style="font-weight:600;font-family:Montserrat;-inkscape-font-specification:'Montserrat, Semi-Bold'"
             id="path6234" />
          <path
             d="m 638.2184,1101.5744 c -2.49569,0 -4.6204,0.8094 -6.00315,2.2934 v -9.1059 h -4.2157 v 25.0244 h 4.2157 v -9.106 c 0,-3.6086 2.02353,-5.4298 5.02511,-5.4298 2.69805,0 4.28315,1.5514 4.28315,4.7553 v 9.7805 h 4.2157 v -10.3201 c 0,-5.4298 -3.20393,-7.8918 -7.52081,-7.8918 z"
             style="font-weight:600;font-family:Montserrat;-inkscape-font-specification:'Montserrat, Semi-Bold'"
             id="path6236" />
          <path
             d="m 668.06554,1110.8827 c 0,-5.6322 -3.84472,-9.3083 -9.10591,-9.3083 -5.36237,0 -9.30827,3.8447 -9.30827,9.2071 0,5.3624 3.91217,9.2408 9.94905,9.2408 3.10276,0 5.63218,-1.0117 7.25101,-2.9341 l -2.25962,-2.5969 c -1.28157,1.3153 -2.86667,1.9561 -4.89021,1.9561 -3.13648,0 -5.32864,-1.6863 -5.83453,-4.3169 h 14.13103 c 0.0337,-0.4047 0.0675,-0.9105 0.0675,-1.2478 z m -9.10591,-5.9357 c 2.7655,0 4.75531,1.7874 5.09256,4.3843 h -10.21885 c 0.4047,-2.6306 2.39451,-4.3843 5.12629,-4.3843 z"
             style="font-weight:600;font-family:Montserrat;-inkscape-font-specification:'Montserrat, Semi-Bold'"
             id="path6238" />
          <path
             d="m 676.12593,1104.4074 v -2.6306 h -4.01335 v 18.0095 h 4.2157 v -8.735 c 0,-3.6761 2.02354,-5.5647 5.22747,-5.5647 0.30353,0 0.60706,0.034 0.97804,0.1012 v -4.0134 c -3.00157,0 -5.19374,0.9443 -6.40786,2.833 z"
             style="font-weight:600;font-family:Montserrat;-inkscape-font-specification:'Montserrat, Semi-Bold'"
             id="path6240" />
          <path
             d="m 702.87029,1110.8827 c 0,-5.6322 -3.84472,-9.3083 -9.10591,-9.3083 -5.36237,0 -9.30827,3.8447 -9.30827,9.2071 0,5.3624 3.91217,9.2408 9.94905,9.2408 3.10276,0 5.63218,-1.0117 7.25101,-2.9341 l -2.25962,-2.5969 c -1.28157,1.3153 -2.86667,1.9561 -4.89021,1.9561 -3.13648,0 -5.32865,-1.6863 -5.83453,-4.3169 h 14.13103 c 0.0337,-0.4047 0.0675,-0.9105 0.0675,-1.2478 z m -9.10591,-5.9357 c 2.7655,0 4.75531,1.7874 5.09256,4.3843 h -10.21885 c 0.4047,-2.6306 2.39451,-4.3843 5.12629,-4.3843 z"
             style="font-weight:600;font-family:Montserrat;-inkscape-font-specification:'Montserrat, Semi-Bold'"
             id="path6242" />
          <path
             d="m 727.0021,1101.5744 c -2.46197,0 -4.55296,0.8432 -5.96943,2.5632 v -2.3608 h -4.01335 v 24.5522 h 4.2157 v -8.7349 c 1.4502,1.6525 3.47374,2.4282 5.76708,2.4282 5.26119,0 9.13964,-3.6423 9.13964,-9.2408 0,-5.5647 -3.87845,-9.2071 -9.13964,-9.2071 z m -0.47216,14.8393 c -3.0353,0 -5.36237,-2.1922 -5.36237,-5.6322 0,-3.44 2.32707,-5.6322 5.36237,-5.6322 3.03531,0 5.32865,2.1922 5.32865,5.6322 0,3.44 -2.29334,5.6322 -5.32865,5.6322 z"
             style="font-weight:600;font-family:Montserrat;-inkscape-font-specification:'Montserrat, Semi-Bold'"
             id="path6244" />
          <path
             d="m 744.16841,1104.4074 v -2.6306 h -4.01335 v 18.0095 h 4.2157 v -8.735 c 0,-3.6761 2.02354,-5.5647 5.22747,-5.5647 0.30353,0 0.60706,0.034 0.97804,0.1012 v -4.0134 c -3.00157,0 -5.19374,0.9443 -6.40786,2.833 z"
             style="font-weight:600;font-family:Montserrat;-inkscape-font-specification:'Montserrat, Semi-Bold'"
             id="path6246" />
          <path
             d="m 770.91277,1110.8827 c 0,-5.6322 -3.84472,-9.3083 -9.10591,-9.3083 -5.36237,0 -9.30827,3.8447 -9.30827,9.2071 0,5.3624 3.91217,9.2408 9.94905,9.2408 3.10276,0 5.63218,-1.0117 7.25101,-2.9341 l -2.25962,-2.5969 c -1.28157,1.3153 -2.86667,1.9561 -4.89021,1.9561 -3.13648,0 -5.32864,-1.6863 -5.83453,-4.3169 h 14.13103 c 0.0337,-0.4047 0.0675,-0.9105 0.0675,-1.2478 z m -9.10591,-5.9357 c 2.7655,0 4.75531,1.7874 5.09256,4.3843 h -10.21885 c 0.4047,-2.6306 2.39451,-4.3843 5.12629,-4.3843 z"
             style="font-weight:600;font-family:Montserrat;-inkscape-font-specification:'Montserrat, Semi-Bold'"
             id="path6248" />
          <path
             d="m 788.3826,1094.7619 v 9.2408 c -1.41647,-1.6526 -3.47374,-2.4283 -5.8008,-2.4283 -5.22747,0 -9.10591,3.6087 -9.10591,9.2071 0,5.5985 3.87844,9.2408 9.10591,9.2408 2.46197,0 4.55295,-0.8431 5.96943,-2.5631 v 2.3271 h 4.04707 v -25.0244 z m -5.29492,21.6518 c -3.0353,0 -5.36237,-2.1922 -5.36237,-5.6322 0,-3.44 2.32707,-5.6322 5.36237,-5.6322 3.03531,0 5.36237,2.1922 5.36237,5.6322 0,3.44 -2.32706,5.6322 -5.36237,5.6322 z"
             style="font-weight:600;font-family:Montserrat;-inkscape-font-specification:'Montserrat, Semi-Bold'"
             id="path6250" />
          <path
             d="m 800.25396,1098.8089 c 1.5851,0 2.69805,-1.1466 2.69805,-2.6306 0,-1.3827 -1.14667,-2.4282 -2.69805,-2.4282 -1.55138,0 -2.69805,1.1129 -2.69805,2.5294 0,1.4165 1.14667,2.5294 2.69805,2.5294 z m -2.12471,20.9774 h 4.2157 v -18.0095 h -4.2157 z"
             style="font-weight:600;font-family:Montserrat;-inkscape-font-specification:'Montserrat, Semi-Bold'"
             id="path6252" />
          <path
             d="m 816.13872,1120.0223 c 3.50746,0 6.30669,-1.5176 7.68944,-4.2157 l -3.23766,-1.8886 c -1.07922,1.72 -2.69805,2.4957 -4.4855,2.4957 -3.10276,0 -5.46355,-2.1247 -5.46355,-5.6322 0,-3.4737 2.36079,-5.6322 5.46355,-5.6322 1.78745,0 3.40628,0.7757 4.4855,2.4957 l 3.23766,-1.8886 c -1.38275,-2.7318 -4.18198,-4.182 -7.68944,-4.182 -5.69962,0 -9.7467,3.811 -9.7467,9.2071 0,5.3961 4.04708,9.2408 9.7467,9.2408 z"
             style="font-weight:600;font-family:Montserrat;-inkscape-font-specification:'Montserrat, Semi-Bold'"
             id="path6254" />
          <path
             d="m 837.3521,1115.8066 c -0.64079,0.5059 -1.48393,0.742 -2.36079,0.742 -1.61883,0 -2.4957,-0.9443 -2.4957,-2.6981 v -8.5663 h 4.82276 v -3.3725 h -4.82276 v -4.1145 h -4.2157 v 4.1145 h -2.96785 v 3.3725 h 2.96785 v 8.6675 c 0,3.9796 2.25962,6.0706 6.20551,6.0706 1.51766,0 3.03531,-0.4047 4.04708,-1.2141 z"
             style="font-weight:600;font-family:Montserrat;-inkscape-font-specification:'Montserrat, Semi-Bold'"
             id="path6256" />
          <path
             d="m 844.13091,1098.8089 c 1.58511,0 2.69805,-1.1466 2.69805,-2.6306 0,-1.3827 -1.14667,-2.4282 -2.69805,-2.4282 -1.55138,0 -2.69805,1.1129 -2.69805,2.5294 0,1.4165 1.14667,2.5294 2.69805,2.5294 z m -2.12471,20.9774 h 4.2157 v -18.0095 h -4.2157 z"
             style="font-weight:600;font-family:Montserrat;-inkscape-font-specification:'Montserrat, Semi-Bold'"
             id="path6258" />
          <path
             d="m 859.84705,1120.0223 c 5.59845,0 9.61179,-3.8447 9.61179,-9.2408 0,-5.3961 -4.01334,-9.2071 -9.61179,-9.2071 -5.531,0 -9.57807,3.811 -9.57807,9.2071 0,5.3961 4.04707,9.2408 9.57807,9.2408 z m 0,-3.6086 c -3.03531,0 -5.32865,-2.1922 -5.32865,-5.6322 0,-3.44 2.29334,-5.6322 5.32865,-5.6322 3.06903,0 5.36237,2.1922 5.36237,5.6322 0,3.44 -2.29334,5.6322 -5.36237,5.6322 z"
             style="font-weight:600;font-family:Montserrat;-inkscape-font-specification:'Montserrat, Semi-Bold'"
             id="path6260" />
          <path
             d="m 890.53726,1096.1783 v 15.986 l -13.01808,-15.986 h -3.60864 v 23.608 h 4.3506 v -15.986 l 13.01808,15.986 h 3.60864 v -23.608 z"
             style="font-weight:600;font-family:Montserrat;-inkscape-font-specification:'Montserrat, Semi-Bold'"
             id="path6262" />
        </g>
      </g>
    </g>
  </g>
</svg>
