<?xml version="1.0" encoding="UTF-8" standalone="no"?>
<!-- Created with Inkscape (http://www.inkscape.org/) -->

<svg
   id="svg5"
   version="1.1"
   viewBox="0 0 800 799.99915"
   height="799.99915mm"
   width="800mm"
   inkscape:version="1.1.2 (0a00cf5339, 2022-02-04)"
   sodipodi:docname="logo_monan_white.svg"
   inkscape:export-filename="/home/carlos/Pictures/logo_monan_hires.png"
   inkscape:export-xdpi="96"
   inkscape:export-ydpi="96"
   xmlns:inkscape="http://www.inkscape.org/namespaces/inkscape"
   xmlns:sodipodi="http://sodipodi.sourceforge.net/DTD/sodipodi-0.dtd"
   xmlns:xlink="http://www.w3.org/1999/xlink"
   xmlns="http://www.w3.org/2000/svg"
   xmlns:svg="http://www.w3.org/2000/svg">
  <sodipodi:namedview
     id="namedview7"
     pagecolor="#ffffff"
     bordercolor="#666666"
     borderopacity="1.0"
     inkscape:pageshadow="2"
     inkscape:pageopacity="0.0"
     inkscape:pagecheckerboard="true"
     inkscape:document-units="mm"
     showgrid="true"
     width="1000mm"
     borderlayer="false"
     showborder="true"
     inkscape:showpageshadow="false"
     inkscape:zoom="0.16"
     inkscape:cx="890.625"
     inkscape:cy="1640.625"
     inkscape:window-width="1870"
     inkscape:window-height="1016"
     inkscape:window-x="50"
     inkscape:window-y="27"
     inkscape:window-maximized="1"
     inkscape:current-layer="layer3"
     inkscape:snap-grids="true"
     inkscape:snap-to-guides="true"
     inkscape:snap-page="false"
     fit-margin-top="0"
     fit-margin-left="0"
     fit-margin-right="0"
     fit-margin-bottom="0">
    <inkscape:grid
       type="axonomgrid"
       id="grid1605"
       gridanglex="45"
       gridanglez="45"
       spacingy="3"
       originx="-99.999995"
       originy="-100.00042" />
  </sodipodi:namedview>
  <defs
     id="defs2">
    <linearGradient
       inkscape:collect="always"
       id="linearGradient137793-9">
      <stop
         style="stop-color:#819793;stop-opacity:1;"
         offset="0"
         id="stop138036" />
      <stop
         style="stop-color:#819793;stop-opacity:0;"
         offset="1"
         id="stop138038" />
    </linearGradient>
    <radialGradient
       inkscape:collect="always"
       xlink:href="#linearGradient137793-9"
       id="radialGradient137795"
       cx="510"
       cy="525"
       fx="510"
       fy="525"
       r="315.18707"
       gradientUnits="userSpaceOnUse" />
  </defs>
  <g
     inkscape:label="Layer 1"
     inkscape:groupmode="layer"
     id="layer1"
     style="display:inline"
     transform="translate(-99.999996,-100.00042)" />
  <g
     inkscape:groupmode="layer"
     id="layer2"
     inkscape:label="Layer 2"
     style="display:none"
     transform="translate(-99.999996,-100.00042)" />
  <g
     inkscape:groupmode="layer"
     id="layer3"
     inkscape:label="Layer 3"
     transform="translate(-99.999996,-100.00042)">
    <g
       id="g863"
       transform="translate(-9.5999432,-24.774909)">
      <g
         id="g124038"
         transform="matrix(4.6665555,0,0,4.668143,-1226.2223,-672.60377)"
         style="display:inline">
        <path
           style="fill:#adc7dd;fill-opacity:1;stroke:#000000;stroke-width:0.264583px;stroke-linecap:butt;stroke-linejoin:miter;stroke-opacity:1"
           d="m 322.5,175.5 4.5,-4.5 45,45 45,-45 4.5,4.5 L 372,225 Z"
           id="path71099"
           sodipodi:nodetypes="ccccccc" />
        <path
           style="display:inline;fill:#d9ab7b;fill-opacity:1;stroke:#000000;stroke-width:0.264583px;stroke-linecap:butt;stroke-linejoin:miter;stroke-opacity:1"
           d="M 421.5,337.5 417,342 372,297 327,342 322.5,337.5 372,288 Z"
           id="path71099-5"
           sodipodi:nodetypes="ccccccc" />
        <path
           style="fill:#afc8dc;fill-opacity:1;stroke:#000000;stroke-width:0.264583px;stroke-linecap:butt;stroke-linejoin:miter;stroke-opacity:1"
           d="m 318.00001,180 -4.50001,4.5 58.50001,58.5 58.49998,-58.5 -4.50001,-4.5 -53.99997,54 z"
           id="path72939" />
        <path
           style="display:inline;fill:#b33f1d;fill-opacity:1;stroke:#000000;stroke-width:0.264583px;stroke-linecap:butt;stroke-linejoin:miter;stroke-opacity:1"
           d="m 426,333 4.50001,-4.5 L 372,270 313.50002,328.5 318.00003,333 372,279 Z"
           id="path72939-7" />
        <path
           style="display:inline;fill:#5f83b3;fill-opacity:1;stroke:#000000;stroke-width:0.264583px;stroke-linecap:butt;stroke-linejoin:miter;stroke-opacity:1"
           d="M 448.50438,202.49563 444,198 l -58.44297,58.55699 58.55698,58.44295 4.49561,-4.50439 -54.05259,-53.94733 z"
           id="path72939-3" />
        <path
           style="display:inline;fill:#658c31;fill-opacity:1;stroke:#000000;stroke-width:0.264583px;stroke-linecap:butt;stroke-linejoin:miter;stroke-opacity:1"
           d="m 295.39138,310.49558 4.49565,4.50436 58.55646,-58.4435 L 300,198 l -4.50434,4.49566 53.94783,54.05209 z"
           id="path72939-3-6" />
        <path
           style="fill:#18aeed;fill-opacity:1;stroke:#000000;stroke-width:0.264583px;stroke-linecap:butt;stroke-linejoin:miter;stroke-opacity:1"
           d="m 308.99999,189 -4.5,4.5 L 372,261 439.5,193.5 435,189 372,252 Z"
           id="path72941"
           sodipodi:nodetypes="ccccccc" />
        <path
           style="display:inline;fill:#a4cff1;fill-opacity:1;stroke:#000000;stroke-width:0.264583px;stroke-linecap:butt;stroke-linejoin:miter;stroke-opacity:1"
           d="m 435,324 4.5,-4.5 -67.50001,-67.5 -67.5,67.5 4.5,4.5 63,-63 z"
           id="path72941-3"
           sodipodi:nodetypes="ccccccc" />
        <path
           style="fill:#446f76;fill-opacity:1;stroke:#000000;stroke-width:0.264583px;stroke-linecap:butt;stroke-linejoin:miter;stroke-opacity:1"
           d="m 453,207 -49.5,49.5 49.5,49.5 4.5,-4.5 -45,-45 45.00001,-45 L 453,207"
           id="path114850"
           sodipodi:nodetypes="ccccccc" />
        <path
           style="display:inline;fill:#637134;fill-opacity:1;stroke:#000000;stroke-width:0.264583px;stroke-linecap:butt;stroke-linejoin:miter;stroke-opacity:1"
           d="M 290.93568,305.9473 340.5,256.5117 291.0644,206.94738 286.55855,211.44153 331.5,256.5 l -45.05847,44.94145 4.49415,4.50585"
           id="path114850-2"
           sodipodi:nodetypes="ccccccc" />
      </g>
      <path
         style="fill:url(#radialGradient137795);fill-opacity:1;stroke:#000000;stroke-width:0.264583px;stroke-linecap:butt;stroke-linejoin:miter;stroke-opacity:1"
         d="M 216,210 510.00001,504 804,210 l 20.99998,21 -294,294 294,294 L 804,839.99998 510.00001,545.99998 216,839.99998 195,819 489,525 195,231 216,210"
         id="path124172" />
    </g>
  </g>
</svg>
